<?xml version="1.0" encoding="UTF-8"?>
<!DOCTYPE svg PUBLIC "-//W3C//DTD SVG 1.1//EN" "http://www.w3.org/Graphics/SVG/1.1/DTD/svg11.dtd">
<svg xmlns="http://www.w3.org/2000/svg" version="1.1" width="1920px" height="1080px" style="shape-rendering:geometricPrecision; text-rendering:geometricPrecision; image-rendering:optimizeQuality; fill-rule:evenodd; clip-rule:evenodd" xmlns:xlink="http://www.w3.org/1999/xlink">
<g><path style="opacity:0.988" fill="#000000" d="M 618.5,72.5 C 619.376,72.3691 620.043,72.7025 620.5,73.5C 713.056,249.948 805.056,426.615 896.5,603.5C 860.494,603.833 824.494,603.5 788.5,602.5C 727.333,482.167 666.167,361.833 605,241.5C 551.378,315.245 497.878,389.078 444.5,463C 408.167,463.667 371.833,463.667 335.5,463C 429.72,332.715 524.054,202.549 618.5,72.5 Z"/></g>
<g><path style="opacity:0.982" fill="#000000" d="M 1287.5,286.5 C 1301.17,286.5 1314.83,286.5 1328.5,286.5C 1328.5,392.167 1328.5,497.833 1328.5,603.5C 1314.83,603.5 1301.17,603.5 1287.5,603.5C 1287.5,497.833 1287.5,392.167 1287.5,286.5 Z"/></g>
<g><path style="opacity:0.968" fill="#000000" d="M 1199.5,301.5 C 1219.86,303.718 1228.36,315.052 1225,335.5C 1218.67,348.846 1208.17,354.013 1193.5,351C 1178.87,346.009 1173.04,335.842 1176,320.5C 1179.61,308.796 1187.44,302.463 1199.5,301.5 Z"/></g>
<g><path style="opacity:0.987" fill="#2993d5" d="M 588.5,364.5 C 629.981,443.458 670.981,522.792 711.5,602.5C 553.168,603.5 394.835,603.833 236.5,603.5C 236.608,601.217 237.441,599.217 239,597.5C 257.36,572.64 275.527,547.64 293.5,522.5C 354.5,521.833 415.5,521.167 476.5,520.5C 514.246,468.761 551.579,416.761 588.5,364.5 Z"/></g>
<g><path style="opacity:0.977" fill="#000000" d="M 997.5,382.5 C 1022.1,379.314 1044.43,384.814 1064.5,399C 1070.74,404.334 1075.9,410.501 1080,417.5C 1081.53,407.665 1082.36,397.665 1082.5,387.5C 1094.5,387.5 1106.5,387.5 1118.5,387.5C 1116.9,457.486 1116.06,527.486 1116,597.5C 1112.62,656.211 1081.79,689.044 1023.5,696C 999.015,698.392 975.015,696.059 951.5,689C 944.351,686.509 937.518,683.342 931,679.5C 933.361,669.408 936.361,659.408 940,649.5C 940.414,649.043 940.914,648.709 941.5,648.5C 971.988,665.437 1003.99,669.27 1037.5,660C 1061.34,648.866 1074.17,630.032 1076,603.5C 1076.67,591.833 1076.67,580.167 1076,568.5C 1062.49,587.683 1043.99,598.85 1020.5,602C 971.89,606.289 938.056,586.123 919,541.5C 907.666,506.195 909.332,471.528 924,437.5C 939.824,407.502 964.324,389.168 997.5,382.5 Z M 1013.5,413.5 C 1048.45,413.959 1069.29,431.292 1076,465.5C 1076.67,482.833 1076.67,500.167 1076,517.5C 1070.57,550.757 1051.07,569.091 1017.5,572.5C 986.04,570.692 965.873,554.692 957,524.5C 949.41,495.484 952.744,467.817 967,441.5C 978.278,425.113 993.778,415.78 1013.5,413.5 Z"/></g>
<g><path style="opacity:0.978" fill="#000000" d="M 1468.5,382.5 C 1531.54,378.444 1567.04,407.778 1575,470.5C 1575.71,481.189 1575.54,491.856 1574.5,502.5C 1522.5,502.333 1470.5,502.5 1418.5,503C 1421.72,551.884 1447.89,576.384 1497,576.5C 1517.3,576.958 1536.8,573.292 1555.5,565.5C 1558.78,575.287 1561.11,585.287 1562.5,595.5C 1526.22,608.435 1489.22,610.935 1451.5,603C 1414.94,591.779 1392.11,567.612 1383,530.5C 1374.25,490.372 1381.25,453.372 1404,419.5C 1420.82,399.006 1442.32,386.673 1468.5,382.5 Z M 1470.5,411.5 C 1487.49,409.192 1502.82,413.025 1516.5,423C 1529.95,437.424 1536.62,454.591 1536.5,474.5C 1497.5,474.5 1458.5,474.5 1419.5,474.5C 1422.04,451.166 1432.71,432.666 1451.5,419C 1457.6,415.583 1463.94,413.083 1470.5,411.5 Z"/></g>
<g><path style="opacity:0.982" fill="#000000" d="M 1180.5,387.5 C 1194.17,387.5 1207.83,387.5 1221.5,387.5C 1221.5,459.5 1221.5,531.5 1221.5,603.5C 1207.83,603.5 1194.17,603.5 1180.5,603.5C 1180.5,531.5 1180.5,459.5 1180.5,387.5 Z"/></g>
<g><path style="opacity:0.397" fill="#000000" d="M 387.5,631.5 C 607.833,631.5 828.167,631.5 1048.5,631.5C 1048.5,632.833 1048.5,634.167 1048.5,635.5C 828.167,635.5 607.833,635.5 387.5,635.5C 387.5,634.167 387.5,632.833 387.5,631.5 Z"/></g>
<g><path style="opacity:0.397" fill="#000000" d="M 1130.5,631.5 C 1242.17,631.5 1353.83,631.5 1465.5,631.5C 1465.5,632.833 1465.5,634.167 1465.5,635.5C 1353.83,635.5 1242.17,635.5 1130.5,635.5C 1130.5,634.167 1130.5,632.833 1130.5,631.5 Z"/></g>
<g><path style="opacity:0.848" fill="#000000" d="M 403.5,715.5 C 414.839,713.504 424.505,716.504 432.5,724.5C 431.5,726.167 430.167,727.5 428.5,728.5C 419.827,720.331 410.16,718.831 399.5,724C 392.833,730.333 392.833,736.667 399.5,743C 410.057,747.528 420.223,752.694 430,758.5C 439.272,775.788 434.439,786.955 415.5,792C 403.048,793.852 392.714,790.185 384.5,781C 385.27,779.225 386.437,777.725 388,776.5C 398.889,787.417 411.056,789.25 424.5,782C 430.121,775.021 429.788,768.355 423.5,762C 414.653,757.41 405.653,753.077 396.5,749C 386.616,739.946 385.949,730.279 394.5,720C 397.324,717.921 400.324,716.421 403.5,715.5 Z"/></g>
<g><path style="opacity:0.855" fill="#000000" d="M 467.5,715.5 C 488.089,712.867 500.923,721.534 506,741.5C 510.261,759.093 506.094,774.259 493.5,787C 477.146,796.188 462.98,793.688 451,779.5C 442.333,762.167 442.333,744.833 451,727.5C 455.305,721.672 460.805,717.672 467.5,715.5 Z M 472.5,720.5 C 488.299,720.794 497.466,728.794 500,744.5C 501.283,754.1 500.283,763.433 497,772.5C 487.622,787.913 475.455,790.579 460.5,780.5C 448.689,764.695 447.522,748.029 457,730.5C 461.205,725.492 466.372,722.159 472.5,720.5 Z"/></g>
<g><path style="opacity:0.848" fill="#000000" d="M 943.5,715.5 C 954.839,713.504 964.505,716.504 972.5,724.5C 971.5,726.167 970.167,727.5 968.5,728.5C 959.827,720.331 950.16,718.831 939.5,724C 932.833,730.333 932.833,736.667 939.5,743C 950.057,747.528 960.223,752.694 970,758.5C 979.272,775.788 974.439,786.955 955.5,792C 943.048,793.852 932.714,790.185 924.5,781C 925.27,779.225 926.437,777.725 928,776.5C 938.889,787.417 951.056,789.25 964.5,782C 970.121,775.021 969.788,768.355 963.5,762C 954.653,757.41 945.653,753.077 936.5,749C 926.616,739.946 925.949,730.279 934.5,720C 937.324,717.921 940.324,716.421 943.5,715.5 Z"/></g>
<g><path style="opacity:0.855" fill="#000000" d="M 1007.5,715.5 C 1028.09,712.867 1040.92,721.534 1046,741.5C 1050.26,759.093 1046.09,774.259 1033.5,787C 1017.15,796.188 1002.98,793.688 991,779.5C 982.333,762.167 982.333,744.833 991,727.5C 995.305,721.672 1000.8,717.672 1007.5,715.5 Z M 1012.5,720.5 C 1028.3,720.794 1037.47,728.794 1040,744.5C 1041.28,754.1 1040.28,763.433 1037,772.5C 1027.62,787.913 1015.46,790.579 1000.5,780.5C 988.689,764.695 987.522,748.029 997,730.5C 1001.21,725.492 1006.37,722.159 1012.5,720.5 Z"/></g>
<g><path style="opacity:0.855" fill="#000000" d="M 1292.5,715.5 C 1313.09,712.867 1325.92,721.534 1331,741.5C 1335.26,759.093 1331.09,774.259 1318.5,787C 1302.15,796.188 1287.98,793.688 1276,779.5C 1267.33,762.167 1267.33,744.833 1276,727.5C 1280.3,721.672 1285.8,717.672 1292.5,715.5 Z M 1297.5,720.5 C 1313.3,720.794 1322.47,728.794 1325,744.5C 1326.28,754.1 1325.28,763.433 1322,772.5C 1312.62,787.913 1300.46,790.579 1285.5,780.5C 1273.69,764.695 1272.52,748.029 1282,730.5C 1286.21,725.492 1291.37,722.159 1297.5,720.5 Z"/></g>
<g><path style="opacity:0.848" fill="#000000" d="M 1434.5,715.5 C 1445.84,713.504 1455.51,716.504 1463.5,724.5C 1462.5,726.167 1461.17,727.5 1459.5,728.5C 1450.83,720.331 1441.16,718.831 1430.5,724C 1423.83,730.333 1423.83,736.667 1430.5,743C 1441.06,747.528 1451.22,752.694 1461,758.5C 1470.27,775.788 1465.44,786.955 1446.5,792C 1434.05,793.852 1423.71,790.185 1415.5,781C 1416.27,779.225 1417.44,777.725 1419,776.5C 1429.89,787.417 1442.06,789.25 1455.5,782C 1461.12,775.021 1460.79,768.355 1454.5,762C 1445.65,757.41 1436.65,753.077 1427.5,749C 1417.62,739.946 1416.95,730.279 1425.5,720C 1428.32,717.921 1431.32,716.421 1434.5,715.5 Z"/></g>
<g><path style="opacity:0.93" fill="#000000" d="M 524.5,716.5 C 538.5,716.5 552.5,716.5 566.5,716.5C 566.5,718.167 566.5,719.833 566.5,721.5C 554.5,721.5 542.5,721.5 530.5,721.5C 530.5,731.167 530.5,740.833 530.5,750.5C 540.5,750.5 550.5,750.5 560.5,750.5C 560.5,752.167 560.5,753.833 560.5,755.5C 550.5,755.5 540.5,755.5 530.5,755.5C 530.5,767.167 530.5,778.833 530.5,790.5C 528.5,790.5 526.5,790.5 524.5,790.5C 524.5,765.833 524.5,741.167 524.5,716.5 Z"/></g>
<g><path style="opacity:0.927" fill="#000000" d="M 570.5,716.5 C 588.5,716.5 606.5,716.5 624.5,716.5C 624.5,718.167 624.5,719.833 624.5,721.5C 616.5,721.5 608.5,721.5 600.5,721.5C 600.5,744.5 600.5,767.5 600.5,790.5C 598.5,790.5 596.5,790.5 594.5,790.5C 594.5,767.5 594.5,744.5 594.5,721.5C 586.5,721.5 578.5,721.5 570.5,721.5C 570.5,719.833 570.5,718.167 570.5,716.5 Z"/></g>
<g><path style="opacity:0.848" fill="#000000" d="M 630.5,716.5 C 632.792,716.244 634.959,716.577 637,717.5C 641.794,739.139 646.461,760.805 651,782.5C 656.26,760.721 661.927,739.054 668,717.5C 670.333,716.167 672.667,716.167 675,717.5C 680.978,738.747 686.645,760.08 692,781.5C 696.793,760.533 701.46,739.533 706,718.5C 707.754,716.75 709.921,716.083 712.5,716.5C 707.162,740.855 701.662,765.188 696,789.5C 693.619,790.435 691.119,790.768 688.5,790.5C 683.039,769.451 677.373,748.451 671.5,727.5C 665.364,748.377 659.698,769.377 654.5,790.5C 651.881,790.768 649.381,790.435 647,789.5C 641.178,765.223 635.678,740.889 630.5,716.5 Z"/></g>
<g><path style="opacity:0.859" fill="#000000" d="M 742.5,716.5 C 744.792,716.244 746.959,716.577 749,717.5C 757.642,741.76 766.475,765.927 775.5,790C 772.901,790.769 770.401,790.602 768,789.5C 765.555,781.497 762.722,773.664 759.5,766C 750.167,765.333 740.833,765.333 731.5,766C 728.407,773.777 725.407,781.611 722.5,789.5C 720.235,790.647 717.902,790.814 715.5,790C 724.602,765.527 733.602,741.027 742.5,716.5 Z M 744.5,724.5 C 745.586,724.62 746.253,725.287 746.5,726.5C 750.185,737.86 753.852,749.193 757.5,760.5C 749.5,760.5 741.5,760.5 733.5,760.5C 737.569,748.625 741.236,736.625 744.5,724.5 Z"/></g>
<g><path style="opacity:0.875" fill="#000000" d="M 786.5,716.5 C 797.896,716.091 809.23,716.591 820.5,718C 831.315,722.124 835.482,729.957 833,741.5C 830.2,750.629 824.034,755.796 814.5,757C 821.365,767.701 828.032,778.534 834.5,789.5C 831.388,790.983 828.555,790.65 826,788.5C 819.959,778.25 813.792,768.083 807.5,758C 802.511,757.501 797.511,757.334 792.5,757.5C 792.5,768.5 792.5,779.5 792.5,790.5C 790.5,790.5 788.5,790.5 786.5,790.5C 786.5,765.833 786.5,741.167 786.5,716.5 Z M 792.5,721.5 C 801.652,720.954 810.652,721.788 819.5,724C 824.824,726.48 827.157,730.646 826.5,736.5C 826.38,744.46 822.38,749.294 814.5,751C 807.174,751.5 799.841,751.666 792.5,751.5C 792.5,741.5 792.5,731.5 792.5,721.5 Z"/></g>
<g><path style="opacity:0.897" fill="#000000" d="M 848.5,716.5 C 862.5,716.5 876.5,716.5 890.5,716.5C 890.5,718.167 890.5,719.833 890.5,721.5C 878.5,721.5 866.5,721.5 854.5,721.5C 854.5,730.5 854.5,739.5 854.5,748.5C 864.5,748.5 874.5,748.5 884.5,748.5C 884.5,750.5 884.5,752.5 884.5,754.5C 874.5,754.5 864.5,754.5 854.5,754.5C 854.5,764.833 854.5,775.167 854.5,785.5C 866.833,785.5 879.167,785.5 891.5,785.5C 891.5,787.167 891.5,788.833 891.5,790.5C 877.167,790.5 862.833,790.5 848.5,790.5C 848.5,765.833 848.5,741.167 848.5,716.5 Z"/></g>
<g><path style="opacity:0.908" fill="#000000" d="M 1064.5,716.5 C 1066.5,716.5 1068.5,716.5 1070.5,716.5C 1070.5,739.5 1070.5,762.5 1070.5,785.5C 1082.17,785.5 1093.83,785.5 1105.5,785.5C 1105.5,787.167 1105.5,788.833 1105.5,790.5C 1091.83,790.5 1078.17,790.5 1064.5,790.5C 1064.5,765.833 1064.5,741.167 1064.5,716.5 Z"/></g>
<g><path style="opacity:0.835" fill="#000000" d="M 1114.5,716.5 C 1116.83,716.5 1119.17,716.5 1121.5,716.5C 1121.05,735.888 1121.55,755.221 1123,774.5C 1129.39,786.407 1138.89,789.573 1151.5,784C 1155.1,781.292 1157.6,777.792 1159,773.5C 1160.45,754.555 1160.95,735.555 1160.5,716.5C 1162.5,716.5 1164.5,716.5 1166.5,716.5C 1166.67,734.503 1166.5,752.503 1166,770.5C 1161.39,789.394 1149.55,796.228 1130.5,791C 1120.18,786.214 1115.01,778.048 1115,766.5C 1114.5,749.837 1114.33,733.17 1114.5,716.5 Z"/></g>
<g><path style="opacity:0.927" fill="#000000" d="M 1179.5,716.5 C 1197.5,716.5 1215.5,716.5 1233.5,716.5C 1233.5,718.167 1233.5,719.833 1233.5,721.5C 1225.5,721.5 1217.5,721.5 1209.5,721.5C 1209.5,744.5 1209.5,767.5 1209.5,790.5C 1207.5,790.5 1205.5,790.5 1203.5,790.5C 1203.5,767.5 1203.5,744.5 1203.5,721.5C 1195.5,721.5 1187.5,721.5 1179.5,721.5C 1179.5,719.833 1179.5,718.167 1179.5,716.5 Z"/></g>
<g><path style="opacity:0.914" fill="#000000" d="M 1247.5,716.5 C 1249.5,716.5 1251.5,716.5 1253.5,716.5C 1253.5,741.167 1253.5,765.833 1253.5,790.5C 1251.5,790.5 1249.5,790.5 1247.5,790.5C 1247.5,765.833 1247.5,741.167 1247.5,716.5 Z"/></g>
<g><path style="opacity:0.868" fill="#000000" d="M 1349.5,716.5 C 1352.36,716.055 1354.86,716.722 1357,718.5C 1369.92,739.334 1382.58,760.334 1395,781.5C 1394.54,759.877 1394.38,738.21 1394.5,716.5C 1396.5,716.5 1398.5,716.5 1400.5,716.5C 1400.5,741.167 1400.5,765.833 1400.5,790.5C 1397.88,790.768 1395.38,790.435 1393,789.5C 1380.08,768.666 1367.42,747.666 1355,726.5C 1355.35,747.818 1355.51,769.151 1355.5,790.5C 1353.5,790.5 1351.5,790.5 1349.5,790.5C 1349.5,765.833 1349.5,741.167 1349.5,716.5 Z"/></g>
</svg>
